HIERARCHY
ROOT Hips
{
	OFFSET 0.000000 0.000000 0.000000
	CHANNELS 6 Xposition Yposition Zposition Zrotation Yrotation Xrotation 
	JOINT LowerBack
	{
		OFFSET 0.000000 0.000000 0.000000
		CHANNELS 3 Zrotation Yrotation Xrotation
		JOINT Spine
		{
			OFFSET 0.028270 2.035590 -0.193380
			CHANNELS 3 Zrotation Yrotation Xrotation
			JOINT Spine1
			{
				OFFSET 0.056720 2.048850 -0.042750
				CHANNELS 3 Zrotation Yrotation Xrotation
				JOINT Neck
				{
					OFFSET 0.000000 0.000000 0.000000
					CHANNELS 3 Zrotation Yrotation Xrotation
					JOINT Neck1
					{
						OFFSET -0.054170 1.746240 0.172020
						CHANNELS 3 Zrotation Yrotation Xrotation
						JOINT Head
						{
							OFFSET 0.104070 1.761360 -0.123970
							CHANNELS 3 Zrotation Yrotation Xrotation
							End Site
							{
								OFFSET 0.000000 0.000000 0.000000
							}
						}
					}
				}
				JOINT LeftShoulder
				{
					OFFSET 0.000000 0.000000 0.000000
					CHANNELS 3 Zrotation Yrotation Xrotation
					JOINT LeftArm
					{
						OFFSET 3.362410 1.200890 -0.311210
						CHANNELS 3 Zrotation Yrotation Xrotation
						JOINT LeftForeArm
						{
							OFFSET 4.983000 -0.000000 -0.000000
							CHANNELS 3 Zrotation Yrotation Xrotation
							JOINT LeftHand
							{
								OFFSET 3.483560 -0.000000 -0.000000
								CHANNELS 3 Zrotation Yrotation Xrotation
								JOINT LeftFingerBase
								{
									OFFSET 0.000000 0.000000 0.000000
									CHANNELS 3 Zrotation Yrotation Xrotation
									JOINT LeftHandIndex1
									{
										OFFSET 0.715260 -0.000000 -0.000000
										CHANNELS 3 Zrotation Yrotation Xrotation
										End Site
										{
											OFFSET 0.000000 0.000000 0.000000
										}
									}
								}
								JOINT LThumb
								{
									OFFSET 0.000000 0.000000 0.000000
									CHANNELS 3 Zrotation Yrotation Xrotation
									End Site
									{
										OFFSET 0.000000 0.000000 0.000000
									}
								}
							}
						}
					}
				}
				JOINT RightShoulder
				{
					OFFSET 0.000000 0.000000 0.000000
					CHANNELS 3 Zrotation Yrotation Xrotation
					JOINT RightArm
					{
						OFFSET -3.136600 1.374050 -0.404650
						CHANNELS 3 Zrotation Yrotation Xrotation
						JOINT RightForeArm
						{
							OFFSET -5.241900 -0.000000 -0.000000
							CHANNELS 3 Zrotation Yrotation Xrotation
							JOINT RightHand
							{
								OFFSET -3.444170 -0.000000 -0.000000
								CHANNELS 3 Zrotation Yrotation Xrotation
								JOINT RightFingerBase
								{
									OFFSET 0.000000 0.000000 0.000000
									CHANNELS 3 Zrotation Yrotation Xrotation
									JOINT RightHandIndex1
									{
										OFFSET -0.622530 -0.000000 -0.000000
										CHANNELS 3 Zrotation Yrotation Xrotation
										End Site
										{
											OFFSET 0.000000 0.000000 0.000000
										}
									}
								}
								JOINT RThumb
								{
									OFFSET 0.000000 0.000000 0.000000
									CHANNELS 3 Zrotation Yrotation Xrotation
									End Site
									{
										OFFSET 0.000000 0.000000 0.000000
									}
								}
							}
						}
					}
				}
			}
		}
	}
}
}
MOTION
Frames: 14
Frame Time: 0.008333
-2.674040 16.267443 1.056791 25.356691 60.624420 18.271737 -5.516660 -6.101160 0.125824 -1.407141 -5.898945 -1.703535 -5.235299 -5.874793 3.783665 8.528486 -19.021610 -10.871464 -2.613622 -0.150455 -0.859206 0.000000 0.000000 0.000000 -0.153977 19.434773 1.722192 -25.070184 1.633302 -19.070365 -1.459717 -57.391337 -0.003108 0.817591 0.864475 0.006030 -0.109427 0.204366 0.000000 0.000000 0.000000 0.000000 0.000000 0.000000 0.000000 17.513339 -18.119588 -0.519179 78.747543 -25.195032 -27.277549 4.545082 7.340286 0.004730 1.167959 1.800204 0.016691 0.127735 -0.016560 0.000000 0.000000 0.000000 0.000000 0.000000 0.000000 0.000000 
-2.547350 16.250064 1.161088 24.773504 59.892333 17.851310 -5.322232 -5.944549 -0.030304 -1.393629 -5.748604 -1.751875 -5.314668 -5.725256 3.754406 8.629968 -18.822778 -10.874763 -2.663820 -0.155364 -0.859612 0.000000 0.000000 0.000000 -0.096531 19.427838 1.742326 -25.415598 2.075739 -19.253606 -1.506874 -56.963211 -0.003404 0.905945 0.888607 0.006861 -0.114976 0.198796 0.000000 0.000000 0.000000 0.000000 0.000000 0.000000 0.000000 17.729894 -17.773689 -0.527527 78.180892 -24.233411 -26.894981 4.508688 7.298871 0.005008 0.958066 1.931404 0.014298 0.127754 -0.018365 0.000000 0.000000 0.000000 0.000000 0.000000 0.000000 0.000000 
-2.427052 16.233741 1.262956 24.106239 59.085068 17.396010 -5.114317 -5.777177 -0.172807 -1.379178 -5.588411 -1.799844 -5.402276 -5.565427 3.721538 8.760753 -18.574763 -10.875248 -2.714349 -0.160371 -0.859187 0.000000 0.000000 0.000000 -0.012670 19.410596 1.760255 -25.887526 2.604638 -19.403713 -1.561354 -56.469158 -0.004144 1.104883 0.950599 0.008897 -0.122346 0.192281 0.000000 0.000000 0.000000 0.000000 0.000000 0.000000 0.000000 17.950428 -17.371923 -0.526147 77.601481 -23.090305 -26.514340 4.465239 7.204618 0.005335 0.719839 2.096014 0.011106 0.127640 -0.020462 0.000000 0.000000 0.000000 0.000000 0.000000 0.000000 0.000000 
-2.313556 16.218569 1.362966 23.373241 58.205935 16.913948 -4.904398 -5.603645 -0.295160 -1.365135 -5.422460 -1.845874 -5.494650 -5.399503 3.684868 8.916111 -18.282797 -10.869987 -2.763101 -0.165314 -0.857164 0.000000 0.000000 0.000000 0.101711 19.375819 1.777138 -26.474239 3.238670 -19.506559 -1.623037 -55.913453 -0.005200 1.393450 1.037125 0.012136 -0.131089 0.184900 0.000000 0.000000 0.000000 0.000000 0.000000 0.000000 0.000000 18.163952 -16.922841 -0.515000 77.025631 -21.779895 -26.090244 4.413306 7.092217 0.005704 0.430740 2.293397 0.006314 0.127557 -0.022790 0.000000 0.000000 0.000000 0.000000 0.000000 0.000000 0.000000 
-2.207055 16.204526 1.461859 22.606602 57.262816 16.421107 -4.708383 -5.429519 -0.391503 -1.353876 -5.255444 -1.887974 -5.588786 -5.232247 3.645683 9.089316 -17.942448 -10.854915 -2.808672 -0.170088 -0.852623 0.000000 0.000000 0.000000 0.247853 19.332652 1.793706 -27.158503 3.961269 -19.542644 -1.693112 -55.278365 -0.006405 1.741984 1.131967 0.016573 -0.140670 0.176729 0.000000 0.000000 0.000000 0.000000 0.000000 0.000000 0.000000 18.359691 -16.427164 -0.495950 76.475187 -20.311576 -25.733912 4.353228 6.953782 0.006146 0.097653 2.541803 -0.000476 0.127493 -0.025699 0.000000 0.000000 0.000000 0.000000 0.000000 0.000000 0.000000 
-2.107412 16.191704 1.560487 21.828667 56.267313 15.928735 -4.537401 -5.259596 -0.461329 -1.346790 -5.091491 -1.925602 -5.681822 -5.067908 3.604153 9.273698 -17.565548 -10.827055 -2.849920 -0.174619 -0.844774 0.000000 0.000000 0.000000 0.422240 19.273848 1.810996 -27.919199 4.779655 -19.493541 -1.772380 -54.560735 -0.007573 2.112846 1.222266 0.021710 -0.150523 0.167712 0.000000 0.000000 0.000000 0.000000 0.000000 0.000000 0.000000 18.531255 -15.900083 -0.470964 75.963878 -18.709626 -25.401681 4.284428 6.833859 0.006629 -0.290534 2.833923 -0.010164 0.127535 -0.029101 0.000000 0.000000 0.000000 0.000000 0.000000 0.000000 0.000000 
-2.014251 16.180156 1.659738 21.063960 55.232998 15.451537 -4.401754 -5.098177 -0.508539 -1.345285 -4.934238 -1.958788 -5.771671 -4.910216 3.561348 9.461603 -17.158162 -10.783106 -2.886507 -0.178908 -0.832789 0.000000 0.000000 0.000000 0.619457 19.202757 1.829205 -28.733540 5.677170 -19.339058 -1.862519 -53.744706 -0.008522 2.466157 1.296165 0.027045 -0.160127 0.157792 0.000000 0.000000 0.000000 0.000000 0.000000 0.000000 0.000000 18.673984 -15.351174 -0.443331 75.506143 -16.998204 -25.129173 4.208040 6.755066 0.007140 -0.721172 3.169856 -0.023451 0.127632 -0.033098 0.000000 0.000000 0.000000 0.000000 0.000000 0.000000 0.000000 
-1.926985 16.169980 1.760450 20.329631 54.173325 15.002755 -4.307355 -4.948232 -0.542554 -1.349993 -4.786261 -1.988739 -5.856764 -4.761841 3.518269 9.645444 -16.730070 -10.720645 -2.918419 -0.182988 -0.816001 0.000000 0.000000 0.000000 0.831301 19.121436 1.847901 -29.579631 6.638299 -19.062177 -1.965297 -52.817746 -0.009101 2.762640 1.346263 0.031675 -0.169054 0.146873 -0.000000 0.000000 0.000000 0.000000 0.000000 0.000000 0.000000 18.785166 -14.792417 -0.416527 75.111807 -15.205315 -24.917043 4.125916 6.749582 0.007645 -1.175233 3.541018 -0.040435 0.127709 -0.037673 -0.000000 0.000000 0.000000 0.000000 0.000000 0.000000 0.000000 
-1.844845 16.161290 1.863311 19.636317 53.100001 14.594135 -4.255462 -4.811124 -0.576501 -1.360767 -4.648836 -2.017487 -5.936030 -4.624148 3.475833 9.817807 -16.292211 -10.638271 -2.945974 -0.186920 -0.793959 0.000000 0.000000 0.000000 1.047763 19.032479 1.865852 -30.438189 7.644991 -18.649394 -2.082475 -51.769676 -0.009212 2.967889 1.369555 0.034901 -0.177008 0.134851 -0.000000 0.000000 0.000000 0.000000 0.000000 0.000000 0.000000 18.863498 -14.235765 -0.393965 74.786300 -13.359013 -24.748402 4.040806 6.849878 0.008111 -1.623937 3.933587 -0.060518 0.127649 -0.042750 -0.000000 0.000000 0.000000 0.000000 0.000000 0.000000 0.000000 
-1.767040 16.154195 1.968855 18.988420 52.021228 14.235788 -4.243418 -4.686512 -0.625672 -1.376814 -4.521801 -2.047631 -6.008667 -4.497082 3.434791 9.972130 -15.856219 -10.535839 -2.969569 -0.190765 -0.766501 0.000000 0.000000 0.000000 1.259332 18.938656 1.881044 -31.295573 8.680154 -18.092838 -2.215484 -50.595028 -0.008827 3.055262 1.367564 0.036223 -0.183831 0.121652 -0.000000 0.000000 0.000000 0.000000 0.000000 0.000000 0.000000 18.908449 -13.692626 -0.378541 74.531491 -11.485608 -24.587329 3.956106 7.086760 0.008507 -2.031716 4.328988 -0.082198 0.127314 -0.048196 0.000000 0.000000 0.000000 0.000000 0.000000 0.000000 0.000000 
-1.692679 16.148795 2.077332 18.384401 50.941357 13.935018 -4.264782 -4.572499 -0.704758 -1.396724 -4.403680 -2.081832 -6.074029 -4.379285 3.395633 10.103048 -15.433539 -10.414644 -2.989648 -0.194574 -0.733822 0.000000 0.000000 0.000000 1.457410 18.843393 1.890920 -32.145506 9.728041 -17.392927 -2.365256 -49.293339 -0.008001 3.007484 1.345669 0.035639 -0.189500 0.107255 -0.000000 0.000000 0.000000 0.000000 0.000000 0.000000 0.000000 18.920191 -13.173059 -0.372457 74.344561 -9.607959 -24.377183 3.875503 7.488343 0.008817 -2.360896 4.704994 -0.103077 0.126577 -0.053835 0.000000 0.000000 0.000000 0.000000 0.000000 0.000000 0.000000 
-1.620999 16.145131 2.188785 17.818624 49.859791 13.696097 -4.311204 -4.465777 -0.826219 -1.418858 -4.291697 -2.122579 -6.131588 -4.268131 3.358250 10.206995 -15.034627 -10.277299 -3.006639 -0.198379 -0.696473 0.000000 0.000000 0.000000 1.636145 18.748935 1.892759 -32.989012 10.777148 -16.557841 -2.531870 -47.870488 -0.006859 2.817870 1.313019 0.033149 -0.194099 0.091711 0.000000 0.000000 0.000000 0.000000 0.000000 0.000000 0.000000 18.899709 -12.684941 -0.376860 74.219117 -7.745630 -24.041915 3.802364 8.079831 0.009033 -2.578560 5.037108 -0.119953 0.125350 -0.059456 -0.000000 0.000000 0.000000 0.000000 0.000000 0.000000 0.000000 
-1.551277 16.143176 2.302982 17.282488 48.771168 13.519745 -4.373682 -4.362038 -0.997788 -1.441605 -4.182112 -2.171699 -6.180933 -4.160045 3.321909 10.282478 -14.667336 -10.127456 -3.020966 -0.202190 -0.655310 0.000000 0.000000 0.000000 1.793572 18.657177 1.884065 -33.835082 11.821137 -15.604151 -2.714421 -46.338088 -0.005583 2.490457 1.281056 0.029354 -0.197798 0.075158 0.000000 0.000000 0.000000 0.000000 0.000000 0.000000 0.000000 18.848851 -12.232493 -0.391867 74.144673 -5.915687 -23.491867 3.739155 8.884131 0.009166 -2.662632 5.301737 -0.130226 0.123605 -0.064845 0.000000 0.000000 0.000000 0.000000 0.000000 0.000000 0.000000 
-1.483025 16.142880 2.419565 16.767230 47.666479 13.403703 -4.443409 -4.256796 -1.222073 -1.463386 -4.070997 -2.230231 -6.221420 -4.051281 3.285343 10.330093 -14.344848 -9.970730 -3.032455 -0.205939 -0.611719 0.000000 0.000000 0.000000 1.925296 18.564055 1.862781 -34.693000 12.868370 -14.553621 -2.910317 -44.721932 -0.004388 2.038548 1.265041 0.024650 -0.200794 0.057760 0.000000 0.000000 0.000000 0.000000 0.000000 0.000000 0.000000 18.769595 -11.825051 -0.415915 74.105279 -4.123603 -22.616739 3.686533 9.914179 0.009233 -2.612331 5.480680 -0.132097 0.121427 -0.069801 -0.000000 0.000000 0.000000 0.000000 0.000000 0.000000 0.000000 
